<svg xmlns="http://www.w3.org/2000/svg" width="16" height="16" viewBox="0 0 16 16" fill="none">
<path d="M4.74268 8.35352L8.02295 11.6377C9.29409 12.9101 10.1159 13.734 10.6226 14.2471C10.8761 14.5039 11.049 14.6812 11.1597 14.7969C11.1997 14.8388 11.23 14.8712 11.2524 14.8955C11.253 14.9061 11.2508 14.9145 11.2485 14.9209C11.2442 14.9328 11.2333 14.9486 11.2065 14.9629C11.2035 14.9629 11.2003 14.9629 11.1968 14.9629C11.1542 14.9275 11.0932 14.8751 11.0073 14.7949C10.6039 14.418 9.76729 13.5773 7.89209 11.7041C6.97594 10.7889 6.1354 9.94584 5.51904 9.3252C5.21077 9.01478 4.95858 8.75998 4.78174 8.58008C4.69325 8.49006 4.62433 8.41945 4.57666 8.37012C4.55708 8.34985 4.54187 8.334 4.53076 8.32227C4.4764 8.24242 4.44611 8.1572 4.43896 8.0498L4.74268 8.35352ZM11.1831 1.03418C11.1948 1.0354 11.205 1.03738 11.2124 1.03906C11.2325 1.04964 11.2426 1.06343 11.2476 1.07715C11.2502 1.08454 11.2509 1.09389 11.2505 1.10449C11.2282 1.12865 11.1992 1.16179 11.1597 1.20312C11.049 1.31879 10.8762 1.49611 10.6226 1.75293C10.1159 2.26603 9.29409 3.08993 8.02295 4.3623L4.74268 7.64648L4.43896 7.94922C4.44636 7.84014 4.47751 7.75378 4.53369 7.67285C4.54639 7.65927 4.56477 7.64077 4.58838 7.61621C4.64084 7.56164 4.71597 7.48454 4.81104 7.3877C5.00088 7.1943 5.26723 6.92572 5.58447 6.60645C6.21884 5.968 7.05574 5.12977 7.89209 4.29492C8.72842 3.46009 9.5636 2.62879 10.1948 2.00391C10.5106 1.69134 10.775 1.43126 10.9624 1.24805C11.0563 1.15631 11.1294 1.08464 11.1802 1.03613C11.181 1.03536 11.1813 1.03396 11.1821 1.0332L11.1831 1.03418Z" fill="#ffff" stroke="#ffff"/>
</svg>