<svg xmlns="http://www.w3.org/2000/svg" width="14" height="14" viewBox="0 0 14 14" fill="none">
<mask id="path-1-inside-1_1233_30207" fill="white">
<path fill-rule="evenodd" clip-rule="evenodd" d="M4.32963 0.476552C4.35863 0.483874 4.40903 0.503124 4.44163 0.519336C4.51456 0.555596 10.2873 6.31802 10.382 6.44901C10.4989 6.61092 10.5559 6.79152 10.5559 7.0002C10.5559 7.20887 10.4989 7.38946 10.382 7.5514C10.3479 7.59859 9.00756 8.94825 7.40346 10.5506C4.13248 13.8181 4.44128 13.5296 4.21391 13.5303C4.11426 13.5305 4.08199 13.5246 4.01546 13.4937C3.75121 13.3708 3.64373 13.0742 3.76841 12.8121C3.79233 12.7618 4.44573 12.1001 6.66998 9.8737L9.54068 7.0002L6.66998 4.1267C4.44573 1.90028 3.79233 1.23859 3.76841 1.18831C3.6446 0.927982 3.75194 0.627962 4.01138 0.509186C4.09624 0.470336 4.24465 0.455118 4.32963 0.476552Z"/>
</mask>
<path fill-rule="evenodd" clip-rule="evenodd" d="M4.32963 0.476552C4.35863 0.483874 4.40903 0.503124 4.44163 0.519336C4.51456 0.555596 10.2873 6.31802 10.382 6.44901C10.4989 6.61092 10.5559 6.79152 10.5559 7.0002C10.5559 7.20887 10.4989 7.38946 10.382 7.5514C10.3479 7.59859 9.00756 8.94825 7.40346 10.5506C4.13248 13.8181 4.44128 13.5296 4.21391 13.5303C4.11426 13.5305 4.08199 13.5246 4.01546 13.4937C3.75121 13.3708 3.64373 13.0742 3.76841 12.8121C3.79233 12.7618 4.44573 12.1001 6.66998 9.8737L9.54068 7.0002L6.66998 4.1267C4.44573 1.90028 3.79233 1.23859 3.76841 1.18831C3.6446 0.927982 3.75194 0.627962 4.01138 0.509186C4.09624 0.470336 4.24465 0.455118 4.32963 0.476552Z" fill="#ffff"/>
<path d="M4.32963 0.476552L4.5742 -0.493081L4.57448 -0.49301L4.32963 0.476552ZM4.44163 0.519336L4.88684 -0.376089L4.88685 -0.376086L4.44163 0.519336ZM10.382 6.44901L11.1926 5.86341L11.1926 5.86349L10.382 6.44901ZM10.382 7.5514L11.1927 8.13684L11.1926 8.13695L10.382 7.5514ZM7.40346 10.5506L6.69673 9.84313L6.69673 9.84313L7.40346 10.5506ZM4.21391 13.5303L4.21096 12.5303H4.21108L4.21391 13.5303ZM4.01546 13.4937L4.43707 12.5869L4.43715 12.5869L4.01546 13.4937ZM3.76841 12.8121L2.86535 12.3826L2.86536 12.3826L3.76841 12.8121ZM6.66998 9.8737L5.96253 9.16694H5.96253L6.66998 9.8737ZM9.54068 7.0002L10.2481 6.29344L10.9542 7.0002L10.2481 7.70696L9.54068 7.0002ZM6.66998 4.1267L5.96253 4.83346H5.96253L6.66998 4.1267ZM3.76841 1.18831L2.86536 1.61784L2.86535 1.61782L3.76841 1.18831ZM4.01138 0.509186L4.42767 1.41842L4.42764 1.41843L4.01138 0.509186ZM4.32963 0.476552L4.57448 -0.49301C4.68569 -0.464925 4.8035 -0.417527 4.88684 -0.376089L4.44163 0.519336L3.99642 1.41476C4.00839 1.42071 4.0164 1.42421 4.01937 1.42549C4.0229 1.427 4.02541 1.428 4.02744 1.42878C4.02932 1.42949 4.03341 1.43103 4.04004 1.43322C4.04505 1.43489 4.06102 1.44011 4.08478 1.44611L4.32963 0.476552ZM4.44163 0.519336L4.88685 -0.376086C4.94966 -0.344855 4.99514 -0.313762 5.01018 -0.303395C5.03107 -0.289002 5.04745 -0.276548 5.05706 -0.269099C5.07633 -0.254166 5.09156 -0.241268 5.09932 -0.234633C5.11589 -0.220448 5.13075 -0.206964 5.14039 -0.198134C5.16114 -0.179121 5.18531 -0.156276 5.20999 -0.132704C5.26057 -0.0844002 5.32967 -0.0173472 5.41293 0.06404C5.58025 0.22758 5.81388 0.457929 6.09079 0.732054C6.64506 1.28075 7.37751 2.0096 8.11014 2.74091C8.84277 3.47223 9.57655 4.20698 10.1335 4.7675C10.4118 5.04756 10.647 5.28523 10.8162 5.45757C10.9005 5.54345 10.9702 5.61501 11.0214 5.66821C11.0466 5.69445 11.07 5.71906 11.0894 5.73992C11.0989 5.7501 11.1105 5.76271 11.1222 5.77594C11.1249 5.77904 11.1585 5.8163 11.1926 5.86341L10.382 6.44901L9.57137 7.03461C9.61283 7.092 9.65441 7.13374 9.62421 7.10123C9.61619 7.09261 9.60182 7.07741 9.57955 7.05425C9.53569 7.00863 9.47167 6.94292 9.38892 6.85862C9.224 6.69062 8.99213 6.45633 8.71476 6.17718C8.16041 5.61927 7.4287 4.88659 6.69719 4.15639C5.96568 3.42619 5.23534 2.69945 4.68374 2.15339C4.40772 1.88015 4.17765 1.65333 4.01494 1.49429C3.93319 1.41438 3.8707 1.35379 3.82865 1.31363C3.80702 1.29298 3.79463 1.28139 3.78925 1.27646C3.78582 1.27332 3.79023 1.27746 3.79905 1.285C3.80292 1.28832 3.81495 1.29858 3.83169 1.31156C3.84004 1.31803 3.85534 1.32968 3.87531 1.34344C3.88944 1.35317 3.93417 1.38381 3.99641 1.41476L4.44163 0.519336ZM10.382 6.44901L11.1926 5.86349C11.4384 6.20378 11.5559 6.59133 11.5559 7.0002H10.5559H9.55591C9.55591 6.99366 9.55547 6.99195 9.5558 6.99416C9.55614 6.9965 9.55707 7.00141 9.55915 7.008C9.56124 7.01464 9.56387 7.02098 9.56663 7.02641C9.56935 7.03178 9.57132 7.03453 9.57131 7.03452L10.382 6.44901ZM10.5559 7.0002H11.5559C11.5559 7.40905 11.4384 7.79656 11.1927 8.13684L10.382 7.5514L9.57128 6.96595C9.57129 6.96592 9.56934 6.96866 9.56662 6.97402C9.56387 6.97945 9.56124 6.98578 9.55915 6.99241C9.55707 6.99901 9.55614 7.00392 9.5558 7.00625C9.55547 7.00846 9.55591 7.00675 9.55591 7.0002H10.5559ZM10.382 7.5514L11.1926 8.13695C11.1678 8.17126 11.1458 8.19703 11.1407 8.20302C11.1316 8.21364 11.1237 8.22252 11.1186 8.22824C11.1081 8.23987 11.0978 8.25097 11.0896 8.25969C11.0727 8.27776 11.0519 8.29946 11.0292 8.32295C10.9831 8.37061 10.9193 8.43588 10.8409 8.51562C10.6836 8.67562 10.4614 8.90023 10.191 9.17247C9.64999 9.71727 8.9129 10.4563 8.11018 11.2581L7.40346 10.5506L6.69673 9.84313C7.49812 9.04261 8.23325 8.30558 8.77193 7.76316C9.04142 7.49179 9.2609 7.26999 9.41464 7.11358C9.49177 7.03512 9.55082 6.97468 9.59085 6.93325C9.6112 6.91218 9.62427 6.89849 9.63147 6.89081C9.66624 6.85377 9.61655 6.90327 9.57135 6.96584L10.382 7.5514ZM7.40346 10.5506L8.11018 11.2581C6.48697 12.8796 5.72628 13.6447 5.34999 13.9962C5.25386 14.086 5.16632 14.1645 5.08676 14.2284C5.01561 14.2855 4.90095 14.3724 4.75494 14.4375C4.56025 14.5241 4.37342 14.5454 4.20897 14.5334C4.17178 14.5307 4.10447 14.5223 4.13598 14.5259C4.14563 14.527 4.17642 14.5304 4.21674 14.5302L4.21391 13.5303L4.21108 12.5303C4.27982 12.5301 4.33484 12.5356 4.36654 12.5392C4.4201 12.5455 4.37267 12.54 4.35519 12.5387C4.23014 12.5296 4.08206 12.5478 3.9415 12.6103C3.84962 12.6512 3.80449 12.6931 3.83436 12.6691C3.85581 12.6518 3.90076 12.6131 3.98468 12.5347C4.32857 12.2135 5.04897 11.4891 6.69673 9.84313L7.40346 10.5506ZM4.21391 13.5303L4.21686 14.5302C4.15989 14.5304 4.04749 14.5304 3.92091 14.5071C3.77458 14.4801 3.66348 14.4328 3.59376 14.4004L4.01546 13.4937L4.43715 12.5869C4.43712 12.5869 4.4361 12.5864 4.43428 12.5856C4.43245 12.5848 4.4296 12.5836 4.42589 12.582C4.41846 12.5789 4.40703 12.5743 4.39243 12.5692C4.36052 12.5579 4.32359 12.5476 4.28361 12.5402C4.24597 12.5333 4.21764 12.5312 4.20544 12.5305C4.19528 12.53 4.19387 12.5303 4.21096 12.5303L4.21391 13.5303ZM4.01546 13.4937L3.59385 14.4004C2.829 14.0448 2.50043 13.1498 2.86535 12.3826L3.76841 12.8121L4.67147 13.2416C4.72284 13.1336 4.73394 12.996 4.68623 12.8643C4.6386 12.7329 4.54277 12.636 4.43707 12.5869L4.01546 13.4937ZM3.76841 12.8121L2.86536 12.3826C2.90546 12.2982 2.94917 12.2377 2.9601 12.2225C2.97829 12.1971 2.99474 12.1765 3.00528 12.1636C3.02669 12.1373 3.04822 12.1129 3.06505 12.0942C3.09999 12.0553 3.14462 12.0078 3.19644 11.9536C3.30165 11.8436 3.45978 11.6819 3.68252 11.4563C4.12925 11.0039 4.85068 10.2799 5.96253 9.16694L6.66998 9.8737L7.37744 10.5805C6.26504 11.6939 5.54763 12.414 5.10562 12.8616C4.88399 13.086 4.73527 13.2383 4.64173 13.3361C4.59418 13.3858 4.56646 13.4156 4.55241 13.4313C4.54473 13.4398 4.5476 13.4369 4.55573 13.427C4.55963 13.4222 4.57077 13.4084 4.58495 13.3886C4.59187 13.379 4.63286 13.3228 4.67147 13.2416L3.76841 12.8121ZM6.66998 9.8737L5.96253 9.16694L8.83323 6.29344L9.54068 7.0002L10.2481 7.70696L7.37744 10.5805L6.66998 9.8737ZM9.54068 7.0002L8.83323 7.70696L5.96253 4.83346L6.66998 4.1267L7.37744 3.41994L10.2481 6.29344L9.54068 7.0002ZM6.66998 4.1267L5.96253 4.83346C4.85068 3.72053 4.12925 2.99649 3.68252 2.54409C3.45978 2.31852 3.30165 2.15677 3.19644 2.04677C3.14462 1.99259 3.09999 1.9451 3.06505 1.90622C3.04822 1.88751 3.02669 1.8631 3.00528 1.83682C2.99474 1.82388 2.97829 1.80326 2.9601 1.77791C2.94917 1.76268 2.90546 1.70216 2.86536 1.61784L3.76841 1.18831L4.67147 0.758788C4.63286 0.677608 4.59187 0.621421 4.58495 0.611779C4.57077 0.592021 4.55963 0.578236 4.55573 0.573451C4.5476 0.563474 4.54473 0.560615 4.55241 0.569152C4.56646 0.584782 4.59418 0.614624 4.64173 0.664335C4.73527 0.762126 4.88399 0.914376 5.10562 1.13882C5.54763 1.58644 6.26504 2.30646 7.37744 3.41994L6.66998 4.1267ZM3.76841 1.18831L2.86535 1.61782C2.50611 0.862492 2.81938 -0.0449243 3.59513 -0.400062L4.01138 0.509186L4.42764 1.41843C4.68449 1.30085 4.78309 0.993471 4.67148 0.758804L3.76841 1.18831ZM4.01138 0.509186L3.5951 -0.400047C3.76947 -0.479885 3.9439 -0.51175 4.06845 -0.524522C4.18882 -0.536864 4.37569 -0.54315 4.5742 -0.493081L4.32963 0.476552L4.08507 1.44618C4.15135 1.4629 4.19988 1.46577 4.21995 1.4665C4.24369 1.46735 4.26089 1.46623 4.27247 1.46505C4.28422 1.46384 4.29955 1.4616 4.31945 1.4568C4.33679 1.45262 4.37575 1.44219 4.42767 1.41842L4.01138 0.509186Z" fill="#ffff" mask="url(#path-1-inside-1_1233_30207)"/>
</svg>